<?xml version="1.0" standalone="no"?>
<!DOCTYPE svg PUBLIC "-//W3C//DTD SVG 20010904//EN"
 "http://www.w3.org/TR/2001/REC-SVG-20010904/DTD/svg10.dtd">
<svg version="1.0" xmlns="http://www.w3.org/2000/svg"
 width="203.000000pt" height="204.000000pt" viewBox="0 0 203.000000 204.000000"
 preserveAspectRatio="xMidYMid meet">

<g transform="translate(0.000000,204.000000) scale(0.100000,-0.100000)"
fill="#000000" stroke="none">
<path d="M1050 1974 c-26 -31 -47 -35 -73 -14 -39 31 -56 23 -19 -8 l33 -27
-40 -30 c-22 -17 -41 -36 -41 -44 0 -8 18 1 44 23 24 20 48 36 53 36 4 0 28
-16 52 -35 48 -38 51 -40 51 -25 0 5 -20 25 -45 44 l-46 34 31 22 c29 21 39
40 21 40 -5 0 -14 -7 -21 -16z"/>
<path d="M896 1971 c-6 -8 -36 -100 -36 -108 0 -2 4 -3 9 -3 10 0 45 109 38
117 -3 2 -8 0 -11 -6z"/>
<path d="M1110 1974 c0 -24 32 -114 40 -114 10 0 -17 100 -31 115 -6 5 -9 5
-9 -1z"/>
<path d="M672 1906 c-20 -33 -23 -34 -54 -25 -40 11 -38 11 -38 0 0 -5 14 -12
30 -16 31 -7 36 -14 22 -30 -23 -26 -52 -85 -43 -85 6 0 25 23 42 50 17 28 31
50 32 50 1 0 32 -9 70 -19 37 -11 67 -15 67 -10 0 5 -27 16 -60 26 -63 17 -70
26 -45 59 17 22 19 34 6 34 -5 0 -18 -16 -29 -34z"/>
<path d="M749 1923 c19 -32 49 -63 61 -63 6 0 -3 18 -20 40 -32 40 -60 56 -41
23z"/>
<path d="M1230 1900 c-33 -42 -28 -57 6 -17 37 41 47 57 36 57 -6 0 -25 -18
-42 -40z"/>
<path d="M1310 1933 c0 -5 7 -17 15 -27 25 -33 18 -42 -45 -59 -33 -10 -60
-21 -60 -26 0 -5 30 -1 67 10 38 10 69 19 70 19 1 0 15 -22 32 -50 17 -27 35
-50 41 -50 5 0 -4 22 -20 49 -17 26 -30 51 -30 54 0 3 13 8 30 12 16 4 32 11
35 16 8 11 -2 11 -43 0 -30 -9 -34 -7 -55 24 -21 32 -37 45 -37 28z"/>
<path d="M1468 1857 c-5 -10 -8 -40 -8 -65 1 -37 3 -43 11 -29 5 9 9 39 7 65
-2 32 -5 41 -10 29z"/>
<path d="M540 1818 c0 -24 5 -50 10 -58 7 -11 10 2 10 43 0 31 -4 57 -10 57
-5 0 -10 -19 -10 -42z"/>
<path d="M410 1770 c0 -13 78 -52 93 -47 7 2 -12 16 -40 31 -29 14 -53 22 -53
16z"/>
<path d="M910 1763 c0 -10 16 -31 36 -48 l35 -30 -50 -37 c-54 -41 -106 -52
-97 -20 2 9 7 33 11 52 4 19 9 43 11 53 4 11 0 17 -11 17 -18 0 -20 -4 -35
-82 l-11 -58 -46 0 c-36 0 -55 7 -94 36 -44 32 -49 34 -49 15 0 -13 19 -33 55
-58 74 -52 73 -69 -7 -78 -35 -3 -72 -9 -82 -12 -18 -5 -19 -1 -13 66 5 55 3
71 -7 71 -17 0 -26 -31 -26 -87 0 -49 -5 -53 -73 -62 -37 -4 -53 -11 -55 -23
-2 -11 2 -15 15 -13 10 2 37 6 61 9 l43 4 -6 -66 c-12 -123 -24 -130 -79 -47
-24 37 -43 55 -57 55 -19 0 -18 -4 15 -49 30 -41 36 -57 36 -99 l0 -50 -50
-12 c-33 -8 -50 -17 -50 -27 0 -11 7 -14 25 -9 14 3 36 9 50 12 22 5 25 3 25
-20 0 -26 -45 -106 -60 -106 -4 0 -12 11 -18 25 -7 15 -20 25 -33 25 -20 0
-20 -2 -7 -22 43 -66 42 -64 21 -94 -34 -50 -35 -54 -15 -54 10 0 25 11 32 25
7 14 17 25 21 25 14 0 65 -95 61 -114 -4 -18 -15 -18 -79 0 -16 4 -23 2 -23
-8 0 -9 20 -21 48 -29 47 -15 47 -15 50 -62 3 -39 -2 -54 -27 -91 -35 -50 -37
-56 -17 -56 8 0 31 22 51 50 36 49 62 63 70 38 2 -7 6 -42 10 -77 l6 -64 -60
6 c-46 4 -61 2 -61 -8 0 -15 31 -25 81 -25 40 0 49 -11 49 -63 0 -47 10 -77
26 -77 13 0 13 46 -1 113 -3 17 2 18 63 12 123 -12 129 -22 47 -84 -30 -23
-55 -48 -55 -56 0 -21 6 -19 56 17 37 26 53 32 87 29 48 -3 53 -8 62 -69 9
-59 14 -72 31 -72 14 0 13 10 -6 103 -8 37 -7 37 24 37 22 0 44 -11 75 -38
l44 -38 -37 -27 c-21 -16 -36 -37 -36 -49 0 -18 5 -17 44 16 24 20 50 36 56
36 6 0 32 -16 56 -36 39 -33 44 -34 44 -16 0 12 -15 33 -36 49 l-36 27 43 38
c30 26 54 37 75 38 l31 0 -8 -47 c-5 -27 -11 -58 -14 -70 -4 -16 -1 -23 9 -23
17 0 22 13 31 72 9 61 14 66 62 69 35 3 51 -3 88 -29 52 -36 55 -37 55 -17 0
8 -25 33 -55 56 -82 62 -76 72 47 84 62 7 66 6 63 -11 -14 -69 -14 -114 0
-114 8 0 16 14 20 35 3 19 7 51 10 70 5 30 10 35 34 35 49 0 91 12 91 26 0 11
-13 12 -60 7 l-61 -6 6 44 c13 96 16 109 28 109 7 0 30 -22 50 -50 21 -27 44
-50 52 -50 21 0 19 6 -16 54 -25 35 -30 51 -27 87 3 42 5 44 48 60 25 9 46 24
48 33 4 20 5 20 -48 1 -53 -19 -50 -19 -50 7 0 24 46 108 60 108 5 0 14 -9 20
-20 6 -11 20 -20 30 -20 19 0 19 2 -6 39 l-25 39 25 41 c30 47 31 51 11 51 -8
0 -22 -11 -31 -25 -9 -14 -20 -25 -24 -25 -15 0 -60 80 -60 106 0 24 3 25 28
19 15 -3 37 -9 50 -12 15 -3 22 -1 22 9 0 9 -20 21 -47 29 -48 15 -48 15 -51
62 -3 42 2 55 32 98 32 44 34 49 16 49 -13 0 -32 -19 -56 -55 -55 -83 -64 -76
-79 56 l-6 55 62 -4 c49 -4 61 -2 57 9 -3 8 -26 17 -55 20 -66 8 -73 14 -73
53 0 53 -11 96 -26 96 -10 0 -12 -16 -7 -68 l6 -68 -59 7 c-33 4 -69 8 -81 8
-41 2 -27 35 32 76 35 24 55 45 55 57 0 18 -6 16 -50 -16 -39 -28 -59 -36 -94
-36 -48 0 -48 0 -61 70 -11 59 -16 70 -31 70 -10 0 -13 -7 -9 -22 3 -13 9 -44
14 -70 8 -47 8 -48 -16 -48 -24 0 -123 64 -123 78 0 4 16 18 35 31 20 13 35
32 35 43 0 17 -6 15 -50 -17 l-50 -37 -50 37 c-42 31 -50 34 -50 18z m171
-149 c58 -45 59 -46 59 -97 0 -42 -5 -56 -27 -79 -25 -26 -32 -28 -105 -28
-74 0 -81 2 -103 28 -19 21 -24 39 -25 79 0 51 1 52 58 97 31 25 63 45 70 46
8 0 40 -21 73 -46z m-361 -139 c0 -20 5 -25 26 -25 l25 0 -6 -72 c-9 -97 -8
-95 -54 -102 -133 -20 -121 -20 -121 8 0 21 -5 26 -23 26 -13 0 -26 2 -28 5
-5 5 10 157 16 164 5 4 101 18 138 20 22 1 27 -3 27 -24z m722 9 c24 -5 27
-10 33 -62 12 -111 13 -107 -17 -110 -22 -3 -28 -8 -28 -29 0 -23 -3 -24 -37
-19 -21 3 -59 8 -84 12 -46 6 -47 6 -53 51 -3 25 -6 63 -6 84 0 35 3 39 25 39
20 0 25 5 25 26 0 26 0 26 58 20 31 -4 69 -9 84 -12z m-580 -61 c24 -23 28
-35 28 -80 l0 -53 -45 0 c-44 0 -45 0 -45 34 0 59 12 126 23 126 6 0 24 -12
39 -27z m342 15 c3 -7 7 -43 10 -80 l7 -68 -46 0 -45 0 0 52 c0 43 5 57 27 80
29 31 42 35 47 16z m-314 -228 l0 -40 120 0 120 0 0 40 0 40 44 0 c48 0 56
-11 56 -77 0 -32 -2 -33 -40 -33 l-40 0 0 -120 0 -120 40 0 c40 0 40 0 40 -37
0 -51 -7 -59 -57 -67 l-43 -6 0 45 0 45 -120 0 -120 0 0 -40 0 -40 -50 0 c-48
0 -50 1 -50 28 0 15 -3 37 -6 50 -6 20 -3 22 40 22 l46 0 0 120 0 120 -46 0
-45 0 7 48 c8 55 16 62 67 62 37 0 37 0 37 -40z m-140 11 c0 -10 -3 -33 -6
-50 -6 -29 -9 -31 -52 -31 -36 0 -52 6 -74 27 -39 37 -35 51 15 57 23 3 53 7
67 10 14 2 31 4 38 5 6 0 12 -7 12 -18z m643 3 c44 -7 46 -18 10 -56 -23 -24
-35 -28 -79 -28 l-52 0 -4 50 -3 50 45 -5 c25 -3 62 -8 83 -11z m-791 -101
c26 -25 28 -32 28 -104 0 -77 -1 -78 -33 -103 -24 -18 -46 -26 -75 -26 -39 0
-43 3 -83 62 -23 34 -42 67 -42 73 0 5 17 36 38 68 38 57 38 57 88 57 42 0 56
-5 79 -27z m987 -39 l42 -66 -42 -64 -41 -64 -50 0 c-34 0 -59 6 -79 21 -28
20 -29 23 -29 107 0 82 1 87 28 109 20 16 40 22 78 23 l52 0 41 -66z m-845
-206 c3 -13 6 -34 6 -47 0 -23 -2 -23 -46 -17 -26 3 -62 6 -80 6 -41 0 -45 22
-12 57 17 18 32 23 74 23 45 0 52 -3 58 -22z m658 -5 c32 -31 36 -49 11 -57
-28 -8 -148 -10 -145 -3 1 4 2 25 2 47 l0 40 52 0 c43 0 57 -5 80 -27z m-646
-106 c1 -1 4 -37 8 -79 l7 -78 -26 0 c-21 0 -25 -4 -25 -31 0 -24 -4 -29 -17
-25 -10 2 -48 7 -85 11 -61 6 -68 9 -69 28 0 12 -4 48 -8 80 l-7 57 28 0 c24
0 28 4 28 26 l0 27 82 -7 c45 -4 83 -8 84 -9z m674 -12 c0 -21 5 -25 30 -25
29 0 31 -2 26 -32 -3 -18 -8 -54 -11 -80 l-6 -46 -82 -9 -82 -8 -3 28 c-3 22
-8 27 -29 27 l-26 0 7 72 c3 39 9 74 11 77 3 3 38 8 78 11 39 4 75 8 80 9 4 0
7 -10 7 -24z m-540 -47 c0 -39 -5 -57 -22 -75 -36 -39 -54 -30 -62 30 -11 98
-12 97 39 97 l45 0 0 -52z m326 6 c-3 -26 -6 -60 -6 -75 0 -36 -24 -39 -57 -7
-18 17 -23 32 -23 69 0 51 5 55 64 58 29 1 29 1 22 -45z m-97 -100 c21 -27 29
-107 13 -130 -4 -6 -33 -30 -65 -53 l-57 -43 -65 48 c-64 48 -65 50 -65 97 0
34 6 58 21 78 20 28 23 29 109 29 84 0 90 -1 109 -26z"/>
<path d="M1555 1758 c-47 -24 -50 -26 -43 -33 7 -8 98 36 98 47 0 12 -11 9
-55 -14z"/>
<path d="M1640 1721 l0 -43 -37 6 c-21 4 -50 9 -65 12 -16 3 -28 1 -28 -4 0
-6 19 -13 43 -17 101 -15 94 -9 101 -86 9 -90 25 -90 18 0 l-5 69 44 -5 c31
-4 41 -2 34 5 -5 6 -26 12 -45 14 -32 3 -35 6 -41 41 -8 53 -19 58 -19 8z"/>
<path d="M365 1710 c-6 -37 -10 -40 -46 -46 -21 -4 -39 -11 -39 -15 0 -5 18
-6 41 -3 38 6 40 6 35 -17 -12 -60 -15 -109 -7 -109 9 0 21 57 21 103 0 31 1
31 83 47 31 6 55 15 52 20 -3 4 -22 4 -42 -1 -21 -5 -49 -9 -62 -9 -21 0 -23
3 -18 35 3 19 2 35 -3 35 -4 0 -11 -18 -15 -40z"/>
<path d="M260 1610 c0 -16 51 -93 57 -86 5 5 -44 96 -52 96 -3 0 -5 -5 -5 -10z"/>
<path d="M1742 1608 c-12 -16 -42 -75 -42 -83 0 -15 20 9 43 50 24 41 23 62
-1 33z"/>
<path d="M175 1480 c3 -5 31 -10 61 -10 34 0 53 4 49 10 -3 6 -31 10 -61 10
-34 0 -53 -4 -49 -10z"/>
<path d="M1730 1480 c0 -13 90 -13 110 0 11 7 -3 10 -47 10 -36 0 -63 -4 -63
-10z"/>
<path d="M154 1439 c4 -13 10 -32 13 -41 4 -12 -5 -24 -31 -39 -49 -29 -46
-46 4 -18 22 12 42 21 44 18 2 -2 18 -35 36 -74 18 -38 34 -65 36 -59 3 5 -9
41 -26 78 -17 38 -30 69 -28 71 2 1 22 14 46 29 23 14 42 31 42 37 0 11 -2 10
-61 -27 l-37 -23 -12 30 c-16 37 -36 52 -26 18z"/>
<path d="M1849 1430 c-13 -37 -19 -37 -75 -4 -24 14 -44 21 -44 15 0 -5 20
-22 45 -37 25 -14 45 -30 45 -34 0 -4 -13 -38 -30 -75 -33 -74 -34 -75 -21
-75 5 0 22 31 37 70 16 38 34 70 39 70 6 0 25 -9 43 -20 37 -23 42 -24 42 -10
0 5 -18 19 -40 30 -22 11 -40 23 -40 26 0 2 7 20 14 39 9 20 11 35 5 35 -6 0
-15 -13 -20 -30z"/>
<path d="M1857 1255 c-37 -25 -67 -50 -67 -56 0 -12 4 -9 83 43 31 21 57 43
57 48 0 14 2 15 -73 -35z"/>
<path d="M100 1283 c1 -12 130 -95 130 -83 0 9 -112 90 -124 90 -4 0 -6 -3 -6
-7z"/>
<path d="M1790 1159 c0 -5 10 -11 23 -14 118 -27 157 -31 143 -17 -12 11 -166
40 -166 31z"/>
<path d="M123 1146 c-54 -11 -81 -26 -47 -26 28 1 144 27 151 34 9 9 -46 5
-104 -8z"/>
<path d="M1790 1125 c0 -5 19 -29 42 -52 l42 -43 -42 -43 c-23 -23 -42 -49
-42 -57 0 -8 22 8 50 35 l50 49 34 -33 c18 -18 36 -29 39 -23 4 5 -7 19 -23
31 -37 26 -37 41 -5 71 39 37 29 45 -12 11 l-37 -31 -48 47 c-26 26 -48 43
-48 38z"/>
<path d="M173 1078 l-43 -42 -34 33 c-18 18 -36 29 -39 24 -3 -5 10 -22 30
-37 l35 -28 -31 -32 c-43 -44 -39 -58 4 -16 l35 34 50 -49 c32 -31 50 -43 50
-33 0 8 -19 32 -41 53 l-41 37 41 42 c22 23 41 45 41 49 0 16 -17 5 -57 -35z"/>
<path d="M60 922 c0 -10 158 -37 167 -28 7 7 -6 11 -81 25 -71 13 -86 14 -86
3z"/>
<path d="M1880 919 c-85 -18 -90 -19 -90 -27 0 -5 38 -2 85 7 47 8 85 18 85
23 0 10 -20 9 -80 -3z"/>
<path d="M157 815 c-37 -25 -67 -50 -67 -56 0 -12 4 -9 83 43 31 21 57 43 57
48 0 14 2 15 -73 -35z"/>
<path d="M1790 848 c0 -7 28 -31 62 -53 72 -47 78 -50 78 -37 0 5 -31 30 -70
56 -38 25 -70 40 -70 34z"/>
<path d="M240 821 c0 -5 -13 -39 -29 -75 l-30 -65 -45 25 c-25 14 -46 21 -46
15 0 -5 18 -20 40 -32 45 -25 46 -28 25 -69 -9 -17 -11 -30 -6 -30 6 0 17 14
26 30 9 17 18 30 21 30 3 0 25 -12 50 -26 24 -14 44 -21 44 -15 0 5 -20 22
-45 37 -25 14 -45 27 -45 29 0 2 14 35 30 73 33 79 34 82 20 82 -5 0 -10 -4
-10 -9z"/>
<path d="M1786 754 c19 -42 33 -78 32 -79 -2 -1 -22 -14 -45 -29 -58 -36 -55
-51 4 -18 44 24 47 25 57 8 6 -10 17 -25 24 -34 12 -15 13 -15 8 3 -2 11 -8
29 -11 41 -5 16 2 26 35 48 50 33 46 47 -5 17 -20 -11 -40 -21 -44 -21 -4 0
-22 32 -39 70 -17 39 -35 70 -41 70 -5 0 6 -34 25 -76z"/>
<path d="M193 573 c-45 -9 -22 -18 37 -15 33 2 60 8 60 13 0 9 -55 10 -97 2z"/>
<path d="M1740 570 c8 -5 38 -9 65 -9 37 0 45 3 30 9 -29 12 -114 12 -95 0z"/>
<path d="M277 475 c-35 -72 -17 -72 21 0 18 33 25 55 18 55 -6 0 -24 -25 -39
-55z"/>
<path d="M346 473 c3 -32 7 -64 9 -70 3 -9 -8 -11 -42 -6 -34 4 -44 3 -39 -5
4 -7 18 -12 31 -12 39 0 55 -11 56 -39 0 -14 4 -35 9 -46 6 -15 9 -8 9 28 1
51 -1 50 74 38 26 -4 50 -4 53 0 4 7 -9 11 -102 25 -31 4 -32 6 -38 74 -4 39
-11 70 -17 70 -5 0 -7 -24 -3 -57z"/>
<path d="M1655 473 c-9 -80 -9 -81 -52 -88 -83 -13 -100 -25 -29 -19 l69 5 -6
-41 c-3 -22 -1 -40 3 -40 5 0 12 20 16 45 6 42 8 45 38 45 17 0 38 5 46 11 11
7 3 9 -30 7 l-45 -2 3 34 c1 19 5 50 8 68 3 18 1 32 -5 32 -5 0 -12 -26 -16
-57z"/>
<path d="M1717 483 c32 -58 32 -58 38 -51 9 9 -38 98 -51 98 -8 0 -3 -17 13
-47z"/>
<path d="M1510 330 c0 -5 23 -21 50 -35 28 -14 50 -21 50 -15 0 5 -22 21 -50
35 -27 14 -50 21 -50 15z"/>
<path d="M455 308 c-48 -25 -50 -26 -43 -34 7 -6 84 31 93 46 9 15 -5 12 -50
-12z"/>
<path d="M548 287 c-13 -30 -10 -113 3 -100 5 5 9 34 7 64 -2 36 -6 48 -10 36z"/>
<path d="M610 251 c17 -26 30 -51 30 -54 0 -3 -16 -11 -35 -17 -19 -6 -35 -16
-35 -22 0 -6 8 -7 18 -3 53 20 70 18 86 -14 9 -17 21 -31 26 -31 14 0 12 12
-5 34 -24 32 -18 40 45 59 33 9 60 21 60 27 0 5 -21 2 -47 -6 -97 -29 -89 -31
-120 25 -15 28 -34 51 -40 51 -8 0 -1 -19 17 -49z"/>
<path d="M1389 250 c-34 -55 -33 -55 -123 -23 -46 16 -46 16 -46 4 0 -6 27
-18 60 -27 33 -9 60 -21 60 -26 0 -5 -7 -22 -15 -38 -22 -42 -1 -37 24 5 18
31 23 34 46 25 15 -6 33 -10 41 -10 25 0 6 18 -26 25 -17 4 -30 8 -30 10 0 2
13 27 30 55 38 65 19 66 -21 0z"/>
<path d="M1460 248 c0 -31 5 -60 10 -63 13 -8 13 85 0 105 -7 11 -10 -1 -10
-42z"/>
<path d="M910 202 c0 -6 19 -27 42 -47 l42 -36 -29 -23 c-17 -14 -27 -28 -22
-32 4 -4 20 5 36 20 l29 27 36 -31 c20 -18 36 -26 36 -19 0 7 -12 23 -27 36
l-28 22 45 40 c25 21 42 42 39 45 -3 3 -24 -10 -46 -29 -23 -19 -46 -35 -53
-35 -6 0 -32 16 -56 36 -24 20 -44 32 -44 26z"/>
<path d="M771 153 c-16 -20 -28 -40 -25 -45 4 -5 7 -8 8 -6 1 2 17 22 35 46
40 51 24 57 -18 5z"/>
<path d="M864 174 c4 -9 11 -36 17 -60 6 -24 16 -44 21 -44 5 0 7 8 4 18 -3 9
-10 36 -16 60 -6 23 -16 42 -21 42 -6 0 -8 -7 -5 -16z"/>
<path d="M1125 134 c-9 -31 -14 -59 -11 -62 9 -8 11 -3 29 61 8 31 12 57 7 57
-5 0 -16 -25 -25 -56z"/>
<path d="M1230 150 c41 -52 60 -52 23 0 -15 22 -34 40 -41 40 -8 0 -1 -16 18
-40z"/>
</g>
</svg>
