<?xml version="1.0" standalone="no"?>
<!DOCTYPE svg PUBLIC "-//W3C//DTD SVG 20010904//EN"
 "http://www.w3.org/TR/2001/REC-SVG-20010904/DTD/svg10.dtd">
<svg version="1.0" xmlns="http://www.w3.org/2000/svg"
 width="433.000000pt" height="116.000000pt" viewBox="0 0 433.000000 116.000000"
 preserveAspectRatio="xMidYMid meet">

<g transform="translate(0.000000,116.000000) scale(0.100000,-0.100000)"
fill="#000000" stroke="none">
<path d="M500 930 c0 -14 6 -20 23 -19 16 1 18 2 5 6 -10 2 -18 9 -18 15 0 5
7 8 15 4 8 -3 15 -1 15 4 0 6 -9 10 -20 10 -13 0 -20 -7 -20 -20z"/>
<path d="M650 930 c0 -13 7 -20 20 -20 13 0 20 7 20 20 0 13 -7 20 -20 20 -13
0 -20 -7 -20 -20z m30 0 c0 -5 -4 -10 -10 -10 -5 0 -10 5 -10 10 0 6 5 10 10
10 6 0 10 -4 10 -10z"/>
<path d="M829 895 c-1 -3 -2 -10 -3 -15 0 -6 -8 -15 -16 -20 -11 -7 -10 -9 8
-7 16 1 22 8 22 24 0 20 -8 32 -11 18z"/>
<path d="M360 870 c0 -13 7 -20 20 -20 14 0 20 6 19 23 -1 16 -2 18 -6 5 -2
-10 -9 -18 -15 -18 -5 0 -8 7 -4 15 3 8 1 15 -4 15 -6 0 -10 -9 -10 -20z"/>
<path d="M460 795 c0 -33 2 -35 35 -35 33 0 35 2 35 35 0 33 -2 35 -35 35 -33
0 -35 -2 -35 -35z"/>
<path d="M660 795 c0 -34 1 -35 40 -35 39 0 40 1 40 35 0 34 -1 35 -40 35 -39
0 -40 -1 -40 -35z"/>
<path d="M250 780 c0 -5 5 -10 10 -10 6 0 10 5 10 10 0 6 -4 10 -10 10 -5 0
-10 -4 -10 -10z"/>
<path d="M901 773 c-1 -17 5 -23 19 -23 14 0 20 6 19 23 -1 16 -2 18 -6 5 -2
-10 -8 -18 -13 -18 -5 0 -11 8 -13 18 -4 13 -5 11 -6 -5z"/>
<path d="M3123 754 c-136 -50 -177 -243 -76 -355 36 -39 105 -69 163 -69 43 0
117 29 146 58 66 66 85 189 41 273 -47 88 -173 131 -274 93z m154 -74 c49 -30
68 -65 68 -130 0 -73 -35 -124 -96 -140 -101 -28 -179 34 -179 142 0 115 113
186 207 128z"/>
<path d="M1218 555 l3 -205 32 1 c30 2 30 2 5 6 l-28 4 0 194 0 194 28 4 c23
3 22 4 -8 6 l-35 1 3 -205z"/>
<path d="M1504 751 c3 -4 17 -6 31 -3 l25 4 0 -195 0 -196 -27 -4 c-26 -4 -26
-4 5 -6 l32 -1 0 205 0 205 -36 0 c-19 0 -33 -4 -30 -9z"/>
<path d="M1799 693 c-17 -38 -58 -129 -91 -203 -33 -74 -61 -137 -63 -140 -2
-3 17 -3 41 -2 39 4 45 7 56 38 l12 34 117 0 118 0 12 -35 c12 -33 16 -35 55
-35 l43 0 -65 143 c-36 78 -77 170 -92 204 l-27 63 -43 0 -43 0 -30 -67z m111
-100 c18 -43 35 -84 37 -90 4 -10 -15 -13 -77 -13 -45 0 -80 4 -78 8 45 111
73 172 78 172 4 0 22 -35 40 -77z"/>
<path d="M2170 550 l0 -210 40 0 40 0 0 65 0 65 86 0 c100 0 138 17 169 73 22
42 17 122 -11 160 -34 47 -71 57 -203 57 l-121 0 0 -210z m233 129 c24 -11 47
-47 47 -73 0 -7 -9 -25 -21 -40 -19 -24 -26 -26 -100 -26 l-79 0 0 75 0 75 65
0 c35 0 75 -5 88 -11z"/>
<path d="M2590 550 l0 -210 40 0 40 0 0 70 0 70 39 0 c36 0 45 -6 102 -70 59
-66 64 -70 105 -70 24 0 44 3 44 6 0 3 -26 35 -57 71 -32 35 -58 67 -58 69 0
2 16 12 35 22 19 9 40 28 47 42 19 38 16 110 -7 148 -31 50 -71 62 -210 62
l-120 0 0 -210z m251 122 c15 -13 22 -30 22 -52 0 -52 -30 -70 -119 -70 l-74
0 0 70 0 70 74 0 c57 0 79 -4 97 -18z"/>
<path d="M3436 748 c4 -7 36 -54 71 -104 62 -91 63 -92 45 -115 -10 -13 -44
-61 -76 -106 l-57 -83 43 0 c44 0 45 1 97 75 28 41 55 75 59 75 5 0 31 -34 60
-75 50 -72 54 -75 92 -75 22 0 40 3 40 6 0 3 -32 51 -72 106 -50 71 -68 105
-62 114 5 8 37 54 72 104 l63 90 -44 0 c-44 0 -45 0 -93 -75 -27 -41 -52 -75
-55 -75 -4 0 -28 34 -55 75 -48 74 -50 75 -92 75 -32 0 -41 -3 -36 -12z"/>
<path d="M3860 754 c0 -3 36 -58 80 -123 l80 -117 0 -88 0 -87 38 3 37 3 3 89
3 89 73 106 c40 58 76 112 80 119 5 9 -5 12 -38 12 l-46 0 -57 -85 -57 -86
-54 86 -54 85 -44 0 c-24 0 -44 -3 -44 -6z"/>
<path d="M540 675 l0 -55 55 0 55 0 0 55 0 55 -55 0 -55 0 0 -55z"/>
<path d="M320 649 c0 -38 1 -39 35 -39 34 0 35 1 35 38 0 36 -1 38 -35 39 -34
1 -35 0 -35 -38z"/>
<path d="M808 645 c-4 -35 -4 -35 34 -35 37 0 38 1 38 35 0 33 -2 35 -34 35
-31 0 -34 -3 -38 -35z"/>
<path d="M220 620 c0 -13 7 -20 20 -20 11 0 20 4 20 10 0 5 -7 7 -15 4 -8 -4
-15 -1 -15 4 0 6 8 13 18 15 13 4 11 5 -5 6 -17 1 -23 -5 -23 -19z"/>
<path d="M930 620 c0 -13 7 -20 20 -20 13 0 20 7 20 20 0 13 -7 20 -20 20 -13
0 -20 -7 -20 -20z m30 0 c0 -5 -4 -10 -10 -10 -5 0 -10 5 -10 10 0 6 5 10 10
10 6 0 10 -4 10 -10z"/>
<path d="M449 602 c-24 -3 -27 -8 -32 -50 -3 -26 -4 -48 -3 -49 1 -2 27 -4 57
-5 l54 -3 3 51 c3 50 2 52 -25 55 -15 2 -40 3 -54 1z"/>
<path d="M670 556 c0 -60 7 -65 78 -57 32 3 32 4 32 57 l0 54 -55 0 -55 0 0
-54z"/>
<path d="M1279 577 c4 -4 57 -6 117 -5 l109 3 -117 5 c-64 3 -114 1 -109 -3z"/>
<path d="M1343 523 c32 -2 81 -2 110 0 29 2 3 3 -58 3 -60 0 -84 -1 -52 -3z"/>
<path d="M220 485 c0 -19 5 -25 23 -25 17 0 22 6 22 25 0 19 -5 25 -22 25 -18
0 -23 -6 -23 -25z m30 -1 c0 -8 -5 -12 -10 -9 -6 4 -8 11 -5 16 9 14 15 11 15
-7z"/>
<path d="M930 485 c0 -18 5 -25 20 -25 15 0 20 6 19 28 -2 23 -2 24 -6 5 -2
-13 -9 -23 -15 -23 -6 0 -8 9 -5 20 3 11 1 20 -4 20 -5 0 -9 -11 -9 -25z"/>
<path d="M808 466 c-8 -42 2 -56 38 -56 34 0 35 1 32 37 -3 35 -6 38 -35 39
-24 1 -32 -3 -35 -20z"/>
<path d="M320 445 c0 -33 2 -35 35 -35 33 0 35 2 35 35 0 33 -2 35 -35 35 -33
0 -35 -2 -35 -35z"/>
<path d="M540 425 l0 -55 55 0 55 0 0 55 0 55 -55 0 -55 0 0 -55z"/>
<path d="M250 356 c0 -9 40 -13 46 -5 3 5 -6 9 -20 9 -14 0 -26 -2 -26 -4z"/>
<path d="M900 340 c0 -13 7 -20 20 -20 13 0 20 7 20 20 0 13 -7 20 -20 20 -13
0 -20 -7 -20 -20z m30 0 c0 -5 -4 -10 -10 -10 -5 0 -10 5 -10 10 0 6 5 10 10
10 6 0 10 -4 10 -10z"/>
<path d="M460 310 c0 -39 1 -40 35 -40 34 0 35 1 35 40 0 39 -1 40 -35 40 -34
0 -35 -1 -35 -40z"/>
<path d="M660 309 l0 -40 38 3 c35 3 37 5 40 41 l3 37 -40 0 -41 0 0 -41z"/>
<path d="M268 323 c6 -2 18 -2 25 0 6 3 1 5 -13 5 -14 0 -19 -2 -12 -5z"/>
<path d="M360 230 c0 -13 7 -20 20 -20 13 0 20 7 20 20 0 13 -7 20 -20 20 -13
0 -20 -7 -20 -20z m30 0 c0 -5 -4 -10 -10 -10 -5 0 -10 5 -10 10 0 6 5 10 10
10 6 0 10 -4 10 -10z"/>
<path d="M800 230 c0 -13 7 -20 20 -20 13 0 20 7 20 20 0 13 -7 20 -20 20 -13
0 -20 -7 -20 -20z m30 0 c0 -5 -4 -10 -10 -10 -5 0 -10 5 -10 10 0 6 5 10 10
10 6 0 10 -4 10 -10z"/>
<path d="M500 180 c0 -13 7 -20 20 -20 13 0 20 7 20 20 0 13 -7 20 -20 20 -13
0 -20 -7 -20 -20z m30 0 c0 -5 -4 -10 -10 -10 -5 0 -10 5 -10 10 0 6 5 10 10
10 6 0 10 -4 10 -10z"/>
<path d="M650 180 c0 -11 4 -20 10 -20 5 0 7 7 4 15 -4 8 -1 15 4 15 6 0 12
-8 14 -17 3 -15 5 -14 10 5 5 18 2 22 -18 22 -17 0 -24 -6 -24 -20z"/>
</g>
</svg>
